<?xml version="1.0" standalone="no"?>
<!DOCTYPE svg PUBLIC "-//W3C//DTD SVG 20010904//EN"
 "http://www.w3.org/TR/2001/REC-SVG-20010904/DTD/svg10.dtd">
<svg version="1.0" xmlns="http://www.w3.org/2000/svg"
 width="150px" height="100px" viewBox="0 0 512.000000 512.000000"
 preserveAspectRatio="xMidYMid meet">

<g transform="translate(0.000000,512.000000) scale(0.100000,-0.100000)"
fill="current" stroke="none">
<path d="M3164 3886 l-34 -34 -1 -108 c-1 -60 -4 -249 -8 -419 l-6 -311 -670
78 c-368 43 -924 107 -1235 143 -708 82 -707 82 -749 61 -62 -33 -61 -18 -61
-743 0 -639 1 -659 20 -691 11 -18 35 -39 52 -48 31 -14 97 -7 1198 131 1235
154 1379 172 1423 180 l27 4 0 -420 c0 -451 1 -457 52 -493 30 -21 97 -20 128
1 21 15 1263 1141 1371 1243 46 44 59 97 36 145 -10 21 -266 263 -669 632
-816 749 -739 683 -795 683 -38 0 -50 -5 -79 -34z m748 -748 c343 -314 623
-575 623 -580 0 -5 -281 -265 -625 -578 l-625 -569 -5 447 -5 447 -1325 -167
c-729 -92 -1340 -167 -1357 -167 l-33 -1 0 590 c0 346 4 590 9 590 5 0 611
-70 1346 -155 735 -85 1342 -155 1350 -155 13 0 15 61 15 435 0 239 2 435 5
435 2 0 285 -257 627 -572z"/>
</g>
</svg>
